<svg width="32" height="32" viewBox="0 0 32 32" fill="none" xmlns="http://www.w3.org/2000/svg">
<rect width="32" height="32" rx="16" fill="#E5EDFA"/>
<mask id="mask0_3350_7448" style="mask-type:alpha" maskUnits="userSpaceOnUse" x="-2" y="-2" width="36" height="36">
<rect x="-2" y="-2" width="36" height="36" fill="#D9D9D9"/>
</mask>
<g mask="url(#mask0_3350_7448)">
<path d="M18.9134 12.6191V10.646C19.7288 10.2672 20.5821 9.98308 21.4735 9.79366C22.3648 9.60423 23.2903 9.50952 24.2499 9.50952C24.8518 9.50952 25.4365 9.55231 26.0038 9.63788C26.5711 9.72346 27.1403 9.83643 27.7114 9.97681V11.8575C27.1499 11.6614 26.5917 11.5191 26.0369 11.4306C25.4821 11.3422 24.8864 11.2979 24.2499 11.2979C23.2903 11.2979 22.361 11.4119 21.4619 11.6397C20.5629 11.8676 19.7134 12.1941 18.9134 12.6191ZM18.9134 20.8402V18.8384C19.7095 18.4595 20.5605 18.1754 21.4663 17.9859C22.372 17.7965 23.2999 17.7018 24.2499 17.7018C24.8518 17.7018 25.4365 17.7446 26.0038 17.8302C26.5711 17.9157 27.1403 18.0287 27.7114 18.1691V20.0498C27.1499 19.8537 26.5917 19.7114 26.0369 19.6229C25.4821 19.5345 24.8864 19.4902 24.2499 19.4902C23.2903 19.4902 22.361 19.6051 21.4619 19.835C20.5629 20.0648 19.7134 20.3998 18.9134 20.8402ZM18.9134 16.7441V14.7422C19.7288 14.3633 20.5821 14.0792 21.4735 13.8898C22.3648 13.7004 23.2903 13.6056 24.2499 13.6056C24.8518 13.6056 25.4365 13.6484 26.0038 13.734C26.5711 13.8196 27.1403 13.9326 27.7114 14.073V15.9537C27.1499 15.7575 26.5917 15.6152 26.0369 15.5268C25.4821 15.4383 24.8864 15.3941 24.2499 15.3941C23.2903 15.3941 22.361 15.5128 21.4619 15.7503C20.5629 15.9878 19.7134 16.3191 18.9134 16.7441ZM7.74992 22.0287C8.99225 22.0287 10.2009 22.1696 11.3759 22.4513C12.5509 22.7331 13.7173 23.1749 14.875 23.7768V9.03064C13.8211 8.34412 12.6807 7.82922 11.4538 7.48594C10.2269 7.14267 8.99225 6.97103 7.74992 6.97103C6.84993 6.97103 6.00906 7.04169 5.22734 7.18302C4.44561 7.32437 3.64225 7.55562 2.81725 7.87677C2.70185 7.91524 2.62011 7.97054 2.57204 8.04267C2.52396 8.11479 2.49993 8.19412 2.49993 8.28064V22.4672C2.49993 22.6018 2.548 22.7003 2.64415 22.7628C2.74033 22.8253 2.84611 22.8326 2.96151 22.7845C3.67304 22.5422 4.42399 22.3556 5.21436 22.2249C6.00474 22.0941 6.84993 22.0287 7.74992 22.0287ZM17.1249 23.7768C18.2826 23.1749 19.4489 22.7331 20.6239 22.4513C21.7989 22.1696 23.0076 22.0287 24.2499 22.0287C25.1499 22.0287 25.9951 22.0941 26.7855 22.2249C27.5759 22.3556 28.3268 22.5422 29.0383 22.7845C29.1537 22.8326 29.2595 22.8253 29.3557 22.7628C29.4518 22.7003 29.4999 22.6018 29.4999 22.4672V8.28064C29.4999 8.19412 29.4759 8.11719 29.4278 8.04987C29.3797 7.98254 29.298 7.92484 29.1826 7.87677C28.3576 7.55562 27.5542 7.32437 26.7725 7.18302C25.9908 7.04169 25.1499 6.97103 24.2499 6.97103C23.0076 6.97103 21.773 7.14267 20.546 7.48594C19.3191 7.82922 18.1787 8.34412 17.1249 9.03064V23.7768ZM15.9999 27.0767C14.7903 26.1844 13.4855 25.495 12.0855 25.0085C10.6855 24.5219 9.2403 24.2787 7.74992 24.2787C6.83455 24.2787 5.93553 24.3801 5.05285 24.583C4.17015 24.7859 3.31919 25.0844 2.49996 25.4786C1.96536 25.7248 1.45671 25.6858 0.974012 25.3618C0.491337 25.0378 0.25 24.5786 0.25 23.9844V7.69797C0.25 7.3749 0.333163 7.07153 0.499488 6.78788C0.665837 6.50423 0.90575 6.29991 1.21923 6.17491C2.2346 5.68068 3.29276 5.31482 4.39371 5.07732C5.49466 4.83982 6.6134 4.72107 7.74992 4.72107C9.20955 4.72107 10.6355 4.92059 12.0278 5.31964C13.4201 5.71867 14.7441 6.30761 15.9999 7.08646C17.2557 6.30761 18.5797 5.71867 19.972 5.31964C21.3643 4.92059 22.7903 4.72107 24.2499 4.72107C25.3864 4.72107 26.5052 4.83982 27.6061 5.07732C28.7071 5.31482 29.7653 5.68068 30.7806 6.17491C31.0941 6.29991 31.334 6.50423 31.5004 6.78788C31.6667 7.07153 31.7499 7.3749 31.7499 7.69797V23.9844C31.7499 24.5786 31.4989 25.033 30.997 25.3474C30.4951 25.6618 29.9672 25.6959 29.4133 25.4498C28.6037 25.0652 27.7648 24.7739 26.8965 24.5758C26.0283 24.3777 25.1461 24.2787 24.2499 24.2787C22.7596 24.2787 21.3144 24.5219 19.9144 25.0085C18.5144 25.495 17.2095 26.1844 15.9999 27.0767Z" fill="#003491"/>
</g>
</svg>
