<svg width="32" height="32" viewBox="0 0 32 32" fill="none" xmlns="http://www.w3.org/2000/svg">
<rect width="32" height="32" rx="16" fill="#E5EDFA"/>
<mask id="mask0_3350_7459" style="mask-type:alpha" maskUnits="userSpaceOnUse" x="-2" y="-2" width="36" height="36">
<rect x="-2" y="-2" width="36" height="36" fill="#D9D9D9"/>
</mask>
<g mask="url(#mask0_3350_7459)">
<path d="M16 30.7113C14.2577 29.1748 12.2961 27.983 10.1154 27.1358C7.93461 26.2887 5.64615 25.8267 3.25 25.7498V10.4903C5.65963 10.5576 7.96203 11.0595 10.1572 11.996C12.3524 12.9326 14.3 14.1864 16 15.7575C17.7 14.1864 19.6476 12.9326 21.8427 11.996C24.0379 11.0595 26.3403 10.5576 28.7499 10.4903V25.7498C26.3384 25.8267 24.0461 26.2887 21.873 27.1358C19.7 27.983 17.7423 29.1748 16 30.7113ZM16 27.821C17.575 26.6556 19.25 25.7208 21.025 25.0167C22.8 24.3126 24.625 23.8473 26.5 23.621V12.9825C24.6076 13.3075 22.7754 13.9517 21.0033 14.9152C19.2312 15.8787 17.5634 17.1421 16 18.7056C14.4365 17.1421 12.7687 15.8787 10.9966 14.9152C9.2245 13.9517 7.39229 13.3075 5.49996 12.9825V23.621C7.37496 23.8473 9.19996 24.3126 10.975 25.0167C12.75 25.7208 14.425 26.6556 16 27.821ZM16 11.1825C14.5086 11.1825 13.232 10.6515 12.1699 9.58948C11.1079 8.52748 10.5769 7.25081 10.5769 5.75949C10.5769 4.26814 11.1079 2.99146 12.1699 1.92946C13.232 0.867437 14.5086 0.336426 16 0.336426C17.4913 0.336426 18.768 0.867437 19.83 1.92946C20.892 2.99146 21.423 4.26814 21.423 5.75949C21.423 7.25081 20.892 8.52748 19.83 9.58948C18.768 10.6515 17.4913 11.1825 16 11.1825ZM16.0005 8.93255C16.8732 8.93255 17.6202 8.6218 18.2413 8.0003C18.8625 7.37883 19.1731 6.63171 19.1731 5.75896C19.1731 4.88621 18.8623 4.13926 18.2408 3.51811C17.6193 2.89696 16.8722 2.58639 15.9994 2.58639C15.1267 2.58639 14.3798 2.89714 13.7586 3.51864C13.1375 4.14014 12.8269 4.88725 12.8269 5.75998C12.8269 6.63273 13.1376 7.37968 13.7591 8.00082C14.3806 8.62197 15.1277 8.93255 16.0005 8.93255Z" fill="#003491"/>
</g>
</svg>
