<svg width="32" height="32" viewBox="0 0 32 32" fill="none" xmlns="http://www.w3.org/2000/svg">
<rect width="32" height="32" rx="16" fill="#E5EDFA"/>
<mask id="mask0_3350_7434" style="mask-type:alpha" maskUnits="userSpaceOnUse" x="-2" y="-2" width="36" height="36">
<rect x="-2" y="-2" width="36" height="36" fill="#D9D9D9"/>
</mask>
<g mask="url(#mask0_3350_7434)">
<path d="M8.29806 30.2504C7.32691 30.2504 6.49279 29.9298 5.79569 29.2886C5.09856 28.6473 4.75 27.8538 4.75 26.9081V6.31871C4.75 5.47226 5.02136 4.72163 5.56409 4.0668C6.10679 3.41195 6.79696 2.99594 7.63461 2.81876L18.5221 0.548552C19.249 0.388302 19.9014 0.542514 20.4793 1.01119C21.0571 1.47984 21.3461 2.0878 21.3461 2.83508V20.6408C21.3461 21.1959 21.1732 21.6874 20.8273 22.1153C20.4815 22.5432 20.0394 22.8164 19.5009 22.935L7.94515 25.4264C7.57802 25.5078 7.26781 25.6871 7.01451 25.9644C6.76121 26.2416 6.63456 26.5562 6.63456 26.9081C6.63456 27.3357 6.79947 27.6855 7.1293 27.9576C7.4591 28.2298 7.84869 28.3658 8.29806 28.3658H24.9038C25.0384 28.3658 25.149 28.3226 25.2355 28.236C25.3221 28.1495 25.3654 28.0389 25.3654 27.9042V5.69277C25.3654 5.42532 25.456 5.2014 25.6372 5.02103C25.8184 4.84065 26.0434 4.75046 26.3122 4.75046C26.5809 4.75046 26.8044 4.84065 26.9826 5.02103C27.1608 5.2014 27.2499 5.42532 27.2499 5.69277V27.9042C27.2499 28.5469 27.0196 29.0985 26.5588 29.5593C26.0981 30.02 25.5464 30.2504 24.9038 30.2504H8.29806ZM10.673 22.9553L19.1009 21.1485C19.2067 21.1293 19.2933 21.0764 19.3606 20.9899C19.4279 20.9033 19.4616 20.8072 19.4616 20.7014V2.8572C19.4616 2.71295 19.4038 2.59275 19.2884 2.4966C19.173 2.40043 19.0432 2.36677 18.899 2.39562L10.673 4.1139V22.9553ZM8.78845 23.3614V4.51388L8.09612 4.65619C7.67945 4.74594 7.33169 4.94023 7.05284 5.23905C6.77399 5.53788 6.63456 5.89776 6.63456 6.31871V24.0418C6.83689 23.9289 7.04645 23.8288 7.26325 23.7417C7.48005 23.6546 7.70735 23.5886 7.94515 23.5437L8.78845 23.3614Z" fill="#003491"/>
</g>
</svg>
