<svg width="24" height="24" viewBox="0 0 24 24" fill="none" xmlns="http://www.w3.org/2000/svg">
<mask id="mask0_1417_46476" style="mask-type:alpha" maskUnits="userSpaceOnUse" x="0" y="0" width="24" height="24">
<rect width="24" height="24" fill="#D9D9D9"/>
</mask>
<g mask="url(#mask0_1417_46476)">
<path d="M11.9807 19.3653C11.1743 18.7704 10.3076 18.3108 9.38073 17.9865C8.45379 17.6621 7.49353 17.5 6.49995 17.5C5.8897 17.5 5.29035 17.5676 4.7019 17.7028C4.11343 17.8381 3.54613 18.0371 2.99998 18.2999C2.64358 18.464 2.30447 18.4397 1.98267 18.2269C1.66089 18.014 1.5 17.7127 1.5 17.323V6.48463C1.5 6.26924 1.55705 6.0702 1.67115 5.8875C1.78525 5.7048 1.94358 5.57178 2.14615 5.48845C2.82307 5.15897 3.52851 4.91186 4.26248 4.74713C4.99644 4.58238 5.74227 4.5 6.49995 4.5C7.47303 4.5 8.42047 4.63783 9.34225 4.91348C10.2641 5.18913 11.1499 5.57695 11.9999 6.07695V17.5615C12.8435 17.0282 13.7336 16.6346 14.6701 16.3807C15.6067 16.1269 16.5499 16 17.4999 16C18.0743 16 18.6169 16.0404 19.1278 16.1211C19.6387 16.2019 20.1666 16.3295 20.7115 16.5038C20.782 16.523 20.8477 16.5246 20.9086 16.5086C20.9695 16.4926 21 16.4397 21 16.35V5.11925C21.173 5.17053 21.3419 5.22758 21.5067 5.2904C21.6714 5.35322 21.832 5.43206 21.9884 5.52693C22.1589 5.61026 22.2868 5.73205 22.372 5.8923C22.4573 6.05257 22.4999 6.22437 22.4999 6.4077V17.3038C22.4999 17.6935 22.3342 17.9932 22.0028 18.2028C21.6714 18.4124 21.3179 18.4384 20.9422 18.2807C20.4025 18.0243 19.8432 17.8301 19.2643 17.698C18.6855 17.566 18.0974 17.5 17.4999 17.5C16.4999 17.5 15.5301 17.6573 14.5903 17.9721C13.6506 18.2868 12.7807 18.7512 11.9807 19.3653ZM13.9999 15V6L19 1V10.5L13.9999 15ZM10.5 16.8365V6.9846C9.87306 6.67435 9.2237 6.43268 8.5519 6.2596C7.8801 6.08652 7.19612 5.99998 6.49995 5.99998C5.88328 5.99998 5.29771 6.05671 4.74323 6.17018C4.18874 6.28363 3.66855 6.44099 3.18265 6.64228C3.13137 6.66151 3.0881 6.68876 3.05285 6.72403C3.01758 6.75928 2.99995 6.80254 2.99995 6.85383V16.3846C2.99995 16.4743 3.0304 16.5272 3.0913 16.5433C3.1522 16.5593 3.21791 16.5545 3.28843 16.5288C3.78201 16.3506 4.29066 16.2179 4.81437 16.1307C5.33809 16.0436 5.89995 16 6.49995 16C7.2474 16 7.96151 16.0772 8.64227 16.2317C9.32306 16.3862 9.94229 16.5878 10.5 16.8365Z" fill="#212529"/>
</g>
</svg>
