<svg xmlns="http://www.w3.org/2000/svg" width="24" height="24" fill="none" xmlns:v="https://vecta.io/nano"><mask id="A" maskUnits="userSpaceOnUse" x="0" y="0" width="24" height="24" mask-type="alpha"><path fill="#d9d9d9" d="M0 0h24v24H0z"/></mask><g mask="url(#A)"><path d="M14.831 12L7.298 4.467a.94.94 0 0 1-.29-.71c.005-.274.107-.511.306-.71a.97.97 0 0 1 .71-.298.97.97 0 0 1 .71.298l7.656 7.671c.181.181.315.383.402.608a1.85 1.85 0 0 1 .131.673 1.85 1.85 0 0 1-.131.673c-.087.224-.221.427-.402.608l-7.671 7.671c-.199.199-.433.296-.702.29a.99.99 0 0 1-.702-.306.97.97 0 0 1-.298-.71.97.97 0 0 1 .298-.71L14.831 12z" fill="#adb5bd"/></g></svg>