<svg width="24" height="24" viewBox="0 0 24 24" fill="none" xmlns="http://www.w3.org/2000/svg">
<mask id="mask0_1417_46483" style="mask-type:alpha" maskUnits="userSpaceOnUse" x="0" y="0" width="24" height="24">
<rect width="24" height="24" fill="#D9D9D9"/>
</mask>
<g mask="url(#mask0_1417_46483)">
<path d="M11.2556 20.75V18.6577C10.3851 18.5025 9.63541 18.1625 9.00656 17.6375C8.37771 17.1125 7.91328 16.3782 7.61328 15.4346L9.00171 14.8577C9.27094 15.6321 9.6546 16.2244 10.1527 16.6346C10.6508 17.0449 11.3158 17.25 12.1479 17.25C12.8697 17.25 13.5065 17.0782 14.0585 16.7346C14.6104 16.391 14.8864 15.8461 14.8864 15.1C14.8864 14.4525 14.679 13.9356 14.2642 13.549C13.8495 13.1625 12.9915 12.7589 11.6902 12.3384C10.3274 11.9077 9.38091 11.4038 8.85078 10.8269C8.32065 10.25 8.05558 9.52433 8.05558 8.64998C8.05558 7.64358 8.40879 6.85159 9.11521 6.27403C9.82162 5.69646 10.5351 5.37563 11.2556 5.31153V3.25H12.7556V5.31153C13.5184 5.41281 14.1594 5.66088 14.6786 6.05575C15.1978 6.45062 15.6017 6.96408 15.8902 7.59613L14.521 8.22303C14.3017 7.74098 13.996 7.36662 13.6037 7.09995C13.2113 6.83328 12.6953 6.69995 12.0556 6.69995C11.303 6.69995 10.6982 6.88328 10.2411 7.24995C9.78408 7.61663 9.55556 8.08331 9.55556 8.64998C9.55556 9.23203 9.78953 9.69741 10.2575 10.0461C10.7254 10.3949 11.5953 10.7603 12.8671 11.1423C14.0491 11.5013 14.9312 12.0128 15.5133 12.6769C16.0953 13.341 16.3863 14.1384 16.3863 15.0692C16.3863 16.1628 16.0347 17.0115 15.3315 17.6154C14.6283 18.2192 13.7697 18.5769 12.7556 18.6884V20.75H11.2556Z" fill="#212529"/>
</g>
</svg>
