<svg width="24" height="24" viewBox="0 0 24 24" fill="none" xmlns="http://www.w3.org/2000/svg">
<mask id="mask0_1396_1222" style="mask-type:alpha" maskUnits="userSpaceOnUse" x="0" y="0" width="24" height="24">
<rect width="24" height="24" fill="#D9D9D9"/>
</mask>
<g mask="url(#mask0_1396_1222)">
<path d="M5.40435 21C4.89924 21 4.47168 20.825 4.12168 20.475C3.77168 20.125 3.59668 19.6974 3.59668 19.1923V5.3077C3.59668 4.80257 3.77168 4.375 4.12168 4.025C4.47168 3.675 4.89924 3.5 5.40435 3.5H12.1159V4.99998H5.40435C5.32742 4.99998 5.2569 5.03203 5.1928 5.09613C5.12869 5.16024 5.09663 5.23077 5.09663 5.3077V19.1923C5.09663 19.2692 5.12869 19.3398 5.1928 19.4039C5.2569 19.468 5.32742 19.5 5.40435 19.5H12.1159V21H5.40435ZM16.1351 16.5192L15.0967 15.4346L17.5313 13H9.11588V11.5H17.5313L15.0967 9.0654L16.1351 7.98083L20.4043 12.25L16.1351 16.5192Z" fill="#BC3206"/>
</g>
</svg>
