<svg width="53" height="63" viewBox="0 0 53 63" fill="none" xmlns="http://www.w3.org/2000/svg">
<path fill-rule="evenodd" clip-rule="evenodd" d="M12.1877 42.2111H22.9129C23.129 40.9987 23.4537 39.8263 23.8762 38.7052H12.1877C11.6901 38.7052 11.2736 38.8738 10.9384 39.211C10.6026 39.5481 10.4347 39.9666 10.4347 40.4666C10.4347 40.9665 10.6026 41.3822 10.9384 41.7138C11.2736 42.0454 11.6901 42.2111 12.1877 42.2111ZM4.3639 49.5083H22.9497C23.1788 50.7217 23.5169 51.8942 23.953 53.0142H4.3639C3.16504 53.0142 2.13801 52.5866 1.2828 51.7314C0.427601 50.8762 0 49.8491 0 48.6503V4.3639C0 3.16504 0.427601 2.13801 1.2828 1.2828C2.13801 0.427602 3.16504 0 4.3639 0H26.1081C26.7061 0 27.2746 0.11812 27.8136 0.354359C28.3521 0.590598 28.8216 0.902869 29.222 1.29117L40.5621 12.6313C40.9504 13.0317 41.2627 13.5012 41.4989 14.0397C41.7352 14.5787 41.8533 15.1472 41.8533 15.7452V26.5265C41.5758 26.5135 41.2968 26.5069 41.0162 26.5069C40.1098 26.5069 39.2187 26.5754 38.3474 26.7077V15.5897H28.3424C27.7313 15.5897 27.2149 15.3788 26.7931 14.957C26.3713 14.5347 26.1604 14.0181 26.1604 13.407V3.50591H4.3639C4.14952 3.50591 3.95281 3.5952 3.77377 3.77377C3.5952 3.95281 3.50591 4.14952 3.50591 4.3639V48.6503C3.50591 48.8647 3.5952 49.0614 3.77377 49.2404C3.95281 49.419 4.14952 49.5083 4.3639 49.5083ZM31.4186 28.9492C31.4186 29.0894 31.4054 29.2232 31.379 29.3505C30.7352 29.7647 30.1175 30.2192 29.5293 30.7106H12.1877C11.6901 30.7106 11.2736 30.5448 10.9384 30.2132C10.6026 29.8816 10.4347 29.4659 10.4347 28.966C10.4347 28.4661 10.6026 28.0475 10.9384 27.7104C11.2736 27.3732 11.6901 27.2046 12.1877 27.2046H29.6656C30.1632 27.2046 30.5799 27.3704 30.9156 27.702C31.2509 28.0336 31.4186 28.4493 31.4186 28.9492ZM39.8898 62.4224C39.7192 62.4224 39.5564 62.4075 39.4013 62.3775C39.2462 62.3476 39.0889 62.3026 38.9292 62.2428C35.2119 60.9996 32.2588 58.7226 30.0699 55.4117C27.8807 52.1011 26.7861 48.5145 26.7861 44.652V36.9578C26.7861 36.3174 26.9691 35.7369 27.3352 35.2162C27.701 34.6956 28.1763 34.3211 28.7611 34.0928L38.8261 30.3309C39.1831 30.1999 39.5377 30.1344 39.8898 30.1344C40.242 30.1344 40.5966 30.1999 40.9535 30.3309L51.0186 34.0928C51.6034 34.3211 52.0798 34.6956 52.4477 35.2162C52.8159 35.7369 53 36.3174 53 36.9578V44.652C53 48.5145 51.9044 52.1011 49.713 55.4117C47.522 58.7226 44.5678 60.9996 40.8505 62.2428C40.6908 62.3026 40.5335 62.3476 40.3784 62.3775C40.2233 62.4075 40.0604 62.4224 39.8898 62.4224ZM39.8898 59.4331C42.8307 58.4274 45.2434 56.559 47.128 53.8278C49.0126 51.0966 49.9549 48.038 49.9549 44.652V36.9578L39.8898 33.169L29.8248 36.9578V44.652C29.8248 48.038 30.7671 51.0966 32.6517 53.8278C34.5363 56.559 36.949 58.4274 39.8898 59.4331ZM46.933 40.9139C47.5868 41.5677 47.5868 42.6277 46.933 43.2815L40.2365 49.978C39.5827 50.6318 38.5227 50.6318 37.8689 49.978L34.5206 46.6297C33.8668 45.9759 33.8668 44.9159 34.5206 44.2621C35.1744 43.6084 36.2344 43.6084 36.8882 44.2621L39.0527 46.4266L44.5654 40.9139C45.2192 40.2601 46.2792 40.2601 46.933 40.9139Z" fill="#004ECC"/>
</svg>
