<svg xmlns="http://www.w3.org/2000/svg" width="20" height="15" xmlns:v="https://vecta.io/nano"><path d="M16.79 8.48c-.21 0-.39-.07-.53-.22-.15-.14-.22-.32-.22-.53s.07-.39.22-.53c.14-.15.32-.22.53-.22h2.12c.21 0 .39.07.53.22a.73.73 0 0 1 .22.53.73.73 0 0 1-.22.53c-.14.15-.32.22-.53.22h-2.12zm-.2 6.28L14.9 13.5c-.18-.13-.28-.29-.3-.49-.03-.2.02-.39.15-.57.13-.17.29-.27.49-.3a.72.72 0 0 1 .56.15l1.69 1.27c.17.13.27.29.3.49a.72.72 0 0 1-.15.56c-.13.18-.29.28-.49.31a.77.77 0 0 1-.56-.16zm-.83-11.63a.72.72 0 0 1-.56.15c-.2-.02-.36-.13-.49-.3-.13-.18-.18-.37-.15-.56.02-.2.12-.37.3-.5L16.55.66a.72.72 0 0 1 .56-.15c.2.02.36.12.49.3a.72.72 0 0 1 .15.56c-.02.2-.13.36-.3.49l-1.69 1.27zM3.33 14.21v-3.9H2.31c-.5 0-.92-.18-1.28-.53C.68 9.42.5 9 .5 8.5V6.96c0-.5.18-.92.53-1.28.36-.35.78-.53 1.28-.53h3.87l3.11-1.86c.3-.18.6-.18.91 0 .3.18.46.44.46.78v7.32c0 .34-.16.6-.46.78-.31.18-.61.18-.91 0l-3.11-1.86H4.83v3.9h-1.5zm8.71-3.36V4.61a4.01 4.01 0 0 1 .95 1.34c.24.54.36 1.14.36 1.78s-.12 1.24-.36 1.78a4.01 4.01 0 0 1-.95 1.34zm-2.88-.54V5.15l-2.57 1.5H2.31c-.08 0-.15.04-.21.1-.07.06-.1.13-.1.21V8.5c0 .08.03.15.1.21.06.06.13.1.21.1h4.28l2.57 1.5z" fill="#212529"/></svg>