<svg xmlns="http://www.w3.org/2000/svg" width="24" height="24" xmlns:v="https://vecta.io/nano"><path d="M4.75 18.815a.72.72 0 0 1-.534-.216.73.73 0 0 1-.216-.535.72.72 0 0 1 .216-.534c.144-.143.322-.215.534-.215H6v-7.25a5.63 5.63 0 0 1 1.25-3.582 5.54 5.54 0 0 1 3.25-2.026v-.7c0-.353.12-.649.361-.889a1.21 1.21 0 0 1 .889-.361c.352 0 .649.12.889.361a1.21 1.21 0 0 1 .361.889v.7a5.54 5.54 0 0 1 3.25 2.026 5.63 5.63 0 0 1 1.25 3.582v7.25h1.25c.212 0 .391.072.534.216a.73.73 0 0 1 .216.535.72.72 0 0 1-.216.534c-.144.143-.322.215-.534.215h-14zm7 2.942c-.492 0-.917-.175-1.273-.525a1.73 1.73 0 0 1-.535-1.282h3.615c0 .505-.175.933-.525 1.283s-.777.525-1.283.525zM7.5 17.315H16v-7.25a4.09 4.09 0 0 0-1.249-3.002c-.833-.832-1.834-1.248-3.003-1.248s-2.17.416-3.001 1.248A4.09 4.09 0 0 0 7.5 10.065v7.25z" fill="#212529"/></svg>