<svg xmlns="http://www.w3.org/2000/svg" width="18" height="18" fill="none" xmlns:v="https://vecta.io/nano"><path d="M10.11 8.225c-.154.154-.323.191-.507.111s-.276-.227-.276-.441v-6.54a.85.85 0 0 1 .259-.626.85.85 0 0 1 .626-.259h6.385a.85.85 0 0 1 .626.259.85.85 0 0 1 .259.626v4.308a.85.85 0 0 1-.259.626.85.85 0 0 1-.626.259h-4.808L10.11 8.225zm.717-3.179h5.154V1.969h-5.154v3.077zm5.604 12.396c-1.945 0-3.871-.462-5.778-1.385s-3.61-2.134-5.108-3.632-2.71-3.199-3.637-5.103S.52 3.495.52 1.55c0-.3.1-.55.3-.75s.45-.3.75-.3h3.261a1.03 1.03 0 0 1 .678.239c.193.16.312.366.359.618L6.441 4.3c.04.246.036.47-.012.671s-.154.377-.316.527L3.827 7.746c.79 1.341 1.729 2.553 2.817 3.635s2.324 2.026 3.706 2.831l2.235-2.273a1.38 1.38 0 0 1 .578-.347c.222-.069.45-.083.684-.043l2.777.565c.253.056.459.178.618.366a1 1 0 0 1 .239.67v3.242c0 .3-.1.55-.3.75s-.45.3-.75.3zM3.108 6.327l1.785-1.708c.032-.026.053-.061.063-.106s.008-.087-.005-.125L4.5 2.154c-.013-.051-.035-.09-.067-.115S4.359 2 4.308 2H2.185a.13.13 0 0 0-.135.135 12.79 12.79 0 0 0 .336 2.083c.172.705.413 1.408.722 2.11zm12.738 9.585c.039 0 .071-.013.096-.038s.038-.058.038-.096v-2.104c0-.051-.013-.093-.038-.125s-.064-.054-.115-.067l-2.1-.442c-.038-.013-.072-.014-.101-.005s-.059.03-.091.063l-1.765 1.785c.663.309 1.352.55 2.066.724s1.385.276 2.011.307z" fill="#004ecc"/></svg>