<svg xmlns="http://www.w3.org/2000/svg" width="20" height="20" xmlns:v="https://vecta.io/nano"><path d="M11.13 19.5H8.101a.83.83 0 0 1-.583-.226c-.164-.151-.263-.338-.296-.562l-.29-2.258a4.59 4.59 0 0 1-.824-.377c-.281-.161-.533-.335-.755-.519l-2.088.881c-.214.083-.427.092-.638.025a.88.88 0 0 1-.497-.396L.626 13.448c-.121-.197-.157-.408-.111-.633s.161-.405.341-.542l1.808-1.367-.049-.448-.014-.448.014-.434.049-.482L.857 7.727C.676 7.59.562 7.409.516 7.185s-.01-.435.111-.633l1.504-2.6c.11-.208.272-.342.485-.404s.426-.051.64.033l2.088.871a6.4 6.4 0 0 1 .772-.524 5.1 5.1 0 0 1 .807-.382l.3-2.258c.033-.224.132-.412.296-.562S7.877.5 8.101.5h3.029a.85.85 0 0 1 .587.226c.167.151.268.338.301.563l.29 2.267a4.71 4.71 0 0 1 .814.382 6.71 6.71 0 0 1 .736.514l2.127-.871a.94.94 0 0 1 .633-.03c.208.063.372.194.492.391l1.504 2.61c.121.197.157.408.111.633s-.16.405-.341.542l-1.846 1.396a2.34 2.34 0 0 1 .059.453l.005.424-.01.414c-.006.14-.029.301-.069.482l1.827 1.377a.82.82 0 0 1 .346.538.87.87 0 0 1-.115.637l-1.504 2.604a.89.89 0 0 1-.505.399c-.216.069-.431.061-.645-.022l-2.067-.881a6.53 6.53 0 0 1-.758.524c-.258.152-.522.276-.792.372l-.29 2.267c-.033.224-.134.412-.301.563a.85.85 0 0 1-.587.226zM9.632 13a2.89 2.89 0 0 0 2.124-.876A2.89 2.89 0 0 0 12.632 10a2.89 2.89 0 0 0-.876-2.124A2.89 2.89 0 0 0 9.632 7c-.842 0-1.553.292-2.132.876S6.632 9.168 6.632 10s.289 1.54.868 2.124S8.79 13 9.632 13zm0-1.5c-.417 0-.771-.146-1.062-.437s-.437-.646-.437-1.062.146-.771.438-1.062.646-.437 1.063-.437.771.146 1.063.438.438.646.438 1.063-.146.771-.437 1.063-.646.438-1.062.438zM8.62 18h1.965l.36-2.679c.51-.133.977-.323 1.399-.568s.83-.561 1.222-.947l2.485 1.044.985-1.7-2.169-1.635c.083-.259.14-.513.17-.761a6.27 6.27 0 0 0 .045-.754c0-.26-.015-.511-.045-.754s-.087-.49-.17-.742l2.188-1.654-.985-1.7-2.514 1.06c-.335-.358-.736-.674-1.203-.948s-.94-.469-1.418-.583L10.62 2H8.636l-.331 2.669a5.22 5.22 0 0 0-1.413.554c-.432.249-.844.569-1.237.962L3.17 5.15l-.985 1.7 2.16 1.61c-.083.237-.142.484-.175.74s-.05.526-.05.81c0 .26.017.515.05.765s.088.497.165.74l-2.15 1.635.985 1.7 2.475-1.05a5.6 5.6 0 0 0 1.217.958 5.66 5.66 0 0 0 1.433.573L8.62 18z" fill="#212529"/></svg>