<svg width="24" height="24" viewBox="0 0 24 24" fill="none" xmlns="http://www.w3.org/2000/svg">
<mask id="mask0_1396_1213" style="mask-type:alpha" maskUnits="userSpaceOnUse" x="0" y="0" width="24" height="24">
<rect width="24" height="24" fill="#D9D9D9"/>
</mask>
<g mask="url(#mask0_1396_1213)">
<path d="M12 21.4808C9.83716 20.8911 8.04646 19.618 6.62787 17.6616C5.20929 15.7052 4.5 13.518 4.5 11.1001V5.34625L12 2.53857L19.5 5.34625V11.1001C19.5 13.518 18.7907 15.7052 17.3721 17.6616C15.9535 19.618 14.1628 20.8911 12 21.4808ZM12 19.9001C13.7333 19.3501 15.1666 18.2501 16.3 16.6001C17.4333 14.9501 18 13.1167 18 11.1001V6.37507L12 4.1347L5.99997 6.37507V11.1001C5.99997 13.1167 6.56664 14.9501 7.69997 16.6001C8.83331 18.2501 10.2666 19.3501 12 19.9001ZM10.0192 15.827H13.9808C14.2368 15.827 14.4515 15.7404 14.6247 15.5671C14.798 15.3939 14.8846 15.1792 14.8846 14.9232V11.9616C14.8846 11.7055 14.798 11.4909 14.6247 11.3176C14.4515 11.1444 14.2368 11.0578 13.9808 11.0578H13.8942V10.0578C13.8942 9.53341 13.7112 9.08822 13.3451 8.7222C12.9791 8.35618 12.5339 8.17318 12.0096 8.17318C11.4852 8.17318 11.04 8.35618 10.674 8.7222C10.308 9.08822 10.125 9.53341 10.125 10.0578V11.0578H10.0192C9.76312 11.0578 9.54846 11.1444 9.37523 11.3176C9.20199 11.4909 9.11538 11.7055 9.11538 11.9616V14.9232C9.11538 15.1792 9.20199 15.3939 9.37523 15.5671C9.54846 15.7404 9.76312 15.827 10.0192 15.827ZM11.0096 11.0578V10.0578C11.0096 9.77444 11.1054 9.53694 11.2971 9.34527C11.4888 9.15361 11.7263 9.05777 12.0096 9.05777C12.2929 9.05777 12.5304 9.15361 12.7221 9.34527C12.9138 9.53694 13.0096 9.77444 13.0096 10.0578V11.0578H11.0096Z" fill="#004ECC"/>
</g>
</svg>
