<svg width="32" height="32" viewBox="0 0 32 32" fill="none" xmlns="http://www.w3.org/2000/svg">
<rect width="32" height="32" rx="16" fill="#E5EDFA"/>
<mask id="mask0_3350_7408" style="mask-type:alpha" maskUnits="userSpaceOnUse" x="-2" y="-2" width="36" height="36">
<rect x="-2" y="-2" width="36" height="36" fill="#D9D9D9"/>
</mask>
<g mask="url(#mask0_3350_7408)">
<mask id="mask1_3350_7408" style="mask-type:alpha" maskUnits="userSpaceOnUse" x="-4" y="-4" width="40" height="40">
<rect x="-4" y="-4" width="40" height="40" fill="#D9D9D9"/>
</mask>
<g mask="url(#mask1_3350_7408)">
<path d="M16.0003 25.1025L8.82083 28.19C7.94477 28.5597 7.11678 28.4883 6.33687 27.9757C5.55695 27.4631 5.16699 26.7372 5.16699 25.798V4.33333C5.16699 3.6225 5.42238 3.01032 5.93316 2.49679C6.44394 1.98327 7.05749 1.7265 7.77383 1.7265H24.2267C24.9431 1.7265 25.5566 1.98327 26.0674 2.49679C26.5782 3.01032 26.8336 3.6225 26.8336 4.33333V25.798C26.8336 26.7372 26.4436 27.4631 25.6637 27.9757C24.8838 28.4883 24.0558 28.5597 23.1797 28.19L16.0003 25.1025ZM16.0003 22.8183L24.0184 26.2382C24.1894 26.313 24.3523 26.2987 24.5072 26.1955C24.6621 26.0922 24.7396 25.9462 24.7396 25.7574V4.33333C24.7396 4.20511 24.6862 4.08758 24.5793 3.98075C24.4725 3.87389 24.355 3.82046 24.2267 3.82046H7.77383C7.6456 3.82046 7.52807 3.87389 7.42124 3.98075C7.31438 4.08758 7.26095 4.20511 7.26095 4.33333V25.7574C7.26095 25.9462 7.33842 26.0922 7.49337 26.1955C7.64828 26.2987 7.81121 26.313 7.98216 26.2382L16.0003 22.8183Z" fill="#003491"/>
</g>
</g>
</svg>
