<svg xmlns="http://www.w3.org/2000/svg" width="32" height="32" fill="none" xmlns:v="https://vecta.io/nano"><rect width="32" height="32" rx="16" fill="#e5edfa"/><mask id="A" maskUnits="userSpaceOnUse" x="-2" y="-2" width="36" height="36" mask-type="alpha"><path fill="#d9d9d9" d="M-2-2h36v36H-2z"/></mask><g mask="url(#A)"><path d="M12.49 21.29L16 18.562l3.465 2.7-1.333-4.294 3.456-2.785h-4.181L16 9.971l-1.408 4.212h-4.181l3.421 2.785-1.342 4.323zm-8.394 5.96a2.26 2.26 0 0 1-1.658-.688 2.26 2.26 0 0 1-.688-1.658v-4.055c0-.23.061-.439.184-.627s.292-.322.508-.402c.742-.337 1.331-.852 1.766-1.547A4.2 4.2 0 0 0 4.862 16c0-.81-.218-1.565-.653-2.265a3.97 3.97 0 0 0-1.766-1.555 1 1 0 0 1-.508-.402c-.123-.188-.184-.397-.184-.627V7.096a2.26 2.26 0 0 1 .688-1.658 2.26 2.26 0 0 1 1.658-.688h23.808a2.26 2.26 0 0 1 1.658.688 2.26 2.26 0 0 1 .688 1.658v4.055c0 .229-.061.438-.184.627s-.289.323-.499.402a3.96 3.96 0 0 0-1.776 1.555c-.435.7-.653 1.455-.653 2.265a4.2 4.2 0 0 0 .653 2.273c.435.695 1.027 1.211 1.776 1.547a1.01 1.01 0 0 1 .499.402c.123.188.184.397.184.627v4.055a2.26 2.26 0 0 1-.688 1.658 2.26 2.26 0 0 1-1.658.688H4.096zm0-1.884h23.808a.45.45 0 0 0 .462-.462v-3.49a7 7 0 0 1-2.257-2.313c-.57-.945-.854-1.978-.854-3.101s.285-2.156.854-3.101a7 7 0 0 1 2.257-2.313v-3.49a.45.45 0 0 0-.462-.462H4.096a.45.45 0 0 0-.462.462v3.49c.952.597 1.709 1.368 2.27 2.313s.842 1.978.842 3.101a5.96 5.96 0 0 1-.842 3.101c-.561.945-1.318 1.715-2.27 2.313v3.49a.45.45 0 0 0 .462.462z" fill="#003491"/></g></svg>