<svg width="24" height="24" viewBox="0 0 24 24" fill="none" xmlns="http://www.w3.org/2000/svg">
<mask id="mask0_1417_46505" style="mask-type:alpha" maskUnits="userSpaceOnUse" x="0" y="0" width="24" height="24">
<rect width="24" height="24" fill="#D9D9D9"/>
</mask>
<g mask="url(#mask0_1417_46505)">
<path d="M9.75 15.0384L16.0384 11L9.75 6.96155V15.0384ZM8.5 20.5V18.5H4.3077C3.80257 18.5 3.375 18.325 3.025 17.975C2.675 17.625 2.5 17.1974 2.5 16.6922V5.3077C2.5 4.80257 2.675 4.375 3.025 4.025C3.375 3.675 3.80257 3.5 4.3077 3.5H19.6923C20.1974 3.5 20.625 3.675 20.975 4.025C21.325 4.375 21.5 4.80257 21.5 5.3077V16.6922C21.5 17.1974 21.325 17.625 20.975 17.975C20.625 18.325 20.1974 18.5 19.6923 18.5H15.5V20.5H8.5ZM4.3077 17H19.6923C19.7692 17 19.8397 16.9679 19.9038 16.9038C19.9679 16.8397 20 16.7692 20 16.6922V5.3077C20 5.23077 19.9679 5.16024 19.9038 5.09613C19.8397 5.03203 19.7692 4.99997 19.6923 4.99997H4.3077C4.23077 4.99997 4.16024 5.03203 4.09613 5.09613C4.03202 5.16024 3.99998 5.23077 3.99998 5.3077V16.6922C3.99998 16.7692 4.03202 16.8397 4.09613 16.9038C4.16024 16.9679 4.23077 17 4.3077 17Z" fill="#212529"/>
</g>
</svg>
